<?xml version="1.0" encoding="utf-8"?>
<!-- Generator: Adobe Illustrator 22.1.0, SVG Export Plug-In . SVG Version: 6.00 Build 0)  -->
<svg version="1.1"
	 id="Layer_2_1_" inkscape:version="0.91 r13725" sodipodi:docname="asf-logo.svg" xmlns:cc="http://creativecommons.org/ns#" xmlns:dc="http://purl.org/dc/elements/1.1/" xmlns:inkscape="http://www.inkscape.org/namespaces/inkscape" xmlns:rdf="http://www.w3.org/1999/02/22-rdf-syntax-ns#" xmlns:sodipodi="http://sodipodi.sourceforge.net/DTD/sodipodi-0.dtd" xmlns:svg="http://www.w3.org/2000/svg"
	 xmlns="http://www.w3.org/2000/svg" xmlns:xlink="http://www.w3.org/1999/xlink" x="0px" y="0px" viewBox="0 0 13 26"
	 style="enable-background:new 0 0 13 26;" xml:space="preserve">
<style type="text/css">
	.st0{fill:url(#path4437_1_);}
	.st1{fill:none;}
	.st2{fill:#BE202E;}
	.st3{opacity:0.35;fill:#BE202E;enable-background:new    ;}
	.st4{fill:url(#path4464_1_);}
	.st5{fill:url(#path4475_1_);}
	.st6{fill:url(#path4486_1_);}
	.st7{fill:url(#path4497_1_);}
	.st8{fill:url(#path4508_1_);}
	.st9{fill:url(#path4519_1_);}
	.st10{fill:url(#path4534_1_);}
	.st11{fill:url(#path4549_1_);}
	.st12{fill:url(#path4564_1_);}
</style>
<sodipodi:namedview  bordercolor="#666666" borderopacity="1" fit-margin-bottom="0" fit-margin-left="0" fit-margin-right="0" fit-margin-top="0" gridtolerance="10" guidetolerance="10" id="namedview4566" inkscape:current-layer="Layer_2" inkscape:cx="3563.8" inkscape:cy="1445" inkscape:pageopacity="0" inkscape:pageshadow="2" inkscape:showpageshadow="true" inkscape:window-height="1671" inkscape:window-maximized="1" inkscape:window-width="3200" inkscape:window-x="0" inkscape:window-y="55" inkscape:zoom="0.33924462" objecttolerance="10" pagecolor="#ffffff" showborder="true" showgrid="false">
	</sodipodi:namedview>
<g>
	
		<linearGradient id="path4437_1_" gradientUnits="userSpaceOnUse" x1="-3606.7349" y1="6568.9697" x2="-3603.0625" y2="6564.6753" gradientTransform="matrix(0.4226 -0.9063 -0.9063 -0.4226 7487.4658 -490.532)">
		<stop  offset="0" style="stop-color:#F69923"/>
		<stop  offset="0.3123" style="stop-color:#F79A23"/>
		<stop  offset="0.8383" style="stop-color:#E97826"/>
	</linearGradient>
	<path id="path4437" inkscape:connector-curvature="0" class="st0" d="M11.1,0.1C10.7,0.4,10,1,9.2,2l0.7,1.4c0.5-0.7,1.1-1.4,1.6-2
		c0,0,0.1-0.1,0.1-0.1c0,0,0,0-0.1,0.1c-0.2,0.2-0.7,0.8-1.5,2c0.8,0,1.9-0.2,2.9-0.4c0.3-1.6-0.3-2.3-0.3-2.3S11.9-0.4,11.1,0.1
		L11.1,0.1z"/>
	<path id="path4439" inkscape:connector-curvature="0" class="st1" d="M9.8,8.1C9.8,8.1,9.8,8.1,9.8,8.1L9.8,8.1c-0.1,0-0.1,0-0.1,0
		C9.7,8.1,9.8,8.1,9.8,8.1z"/>
	<path id="path4441" inkscape:connector-curvature="0" class="st1" d="M9,10.6c-0.1,0-0.1,0-0.2,0C8.9,10.7,9,10.7,9,10.6z"/>
	<path id="path4443" inkscape:connector-curvature="0" class="st1" d="M3.9,16.3C3.9,16.3,3.9,16.2,3.9,16.3
		c0.2-0.5,0.3-0.9,0.5-1.3c0.2-0.5,0.4-0.9,0.5-1.3c0.2-0.5,0.4-0.9,0.5-1.3C5.7,11.9,5.9,11.4,6,11c0.1-0.3,0.3-0.7,0.4-1
		c0-0.1,0.1-0.2,0.1-0.3c0.1-0.2,0.2-0.4,0.3-0.6C7,9,7.1,8.8,7.2,8.6c0-0.1,0.1-0.1,0.1-0.2c0,0,0,0,0,0l-0.1,0L7.1,8.3
		c0,0,0,0,0,0C6.9,8.6,6.8,8.8,6.7,9.1C6.6,9.2,6.5,9.4,6.5,9.6c-0.2,0.4-0.4,0.9-0.6,1.3c-0.2,0.4-0.4,0.9-0.6,1.3
		c-0.2,0.4-0.4,0.9-0.6,1.3c-0.2,0.4-0.4,0.9-0.5,1.3c-0.2,0.4-0.4,0.9-0.5,1.3c0,0.1-0.1,0.2-0.1,0.3c-0.1,0.4-0.3,0.7-0.4,1
		l0.1,0.2l0.1,0c0,0,0,0,0,0C3.6,17.1,3.7,16.7,3.9,16.3L3.9,16.3z"/>
	<path id="path4445" inkscape:connector-curvature="0" class="st1" d="M8.8,10.7L8.8,10.7C8.8,10.7,8.8,10.7,8.8,10.7
		C8.8,10.7,8.8,10.7,8.8,10.7z"/>
	<path id="path4447" inkscape:connector-curvature="0" class="st2" d="M8.6,11.9c-0.1,0-0.2,0-0.3,0.1c0,0,0,0,0,0
		c0.1,0,0.1,0,0.1,0C8.5,11.9,8.5,11.9,8.6,11.9L8.6,11.9z"/>
	<path id="path4449" inkscape:connector-curvature="0" class="st3" d="M8.6,11.9c-0.1,0-0.2,0-0.3,0.1c0,0,0,0,0,0
		c0.1,0,0.1,0,0.1,0C8.5,11.9,8.5,11.9,8.6,11.9L8.6,11.9z"/>
	<path id="path4451" inkscape:connector-curvature="0" class="st2" d="M8.8,10.7C8.8,10.7,8.8,10.7,8.8,10.7
		C8.8,10.7,8.8,10.7,8.8,10.7C8.8,10.7,8.8,10.7,8.8,10.7c0.1,0,0.2,0,0.2,0C9,10.7,8.9,10.7,8.8,10.7L8.8,10.7L8.8,10.7z"/>
	<path id="path4453" inkscape:connector-curvature="0" class="st3" d="M8.8,10.7C8.8,10.7,8.8,10.7,8.8,10.7
		C8.8,10.7,8.8,10.7,8.8,10.7C8.8,10.7,8.8,10.7,8.8,10.7c0.1,0,0.2,0,0.2,0C9,10.7,8.9,10.7,8.8,10.7L8.8,10.7L8.8,10.7z"/>
	
		<linearGradient id="path4464_1_" gradientUnits="userSpaceOnUse" x1="-3633.9146" y1="6569.4443" x2="-3607.7139" y2="6569.4443" gradientTransform="matrix(0.4226 -0.9063 -0.9063 -0.4226 7487.4658 -490.532)">
		<stop  offset="0.3233" style="stop-color:#9E2064"/>
		<stop  offset="0.6302" style="stop-color:#C92037"/>
		<stop  offset="0.7514" style="stop-color:#CD2335"/>
		<stop  offset="1" style="stop-color:#E97826"/>
	</linearGradient>
	<path id="path4464" inkscape:connector-curvature="0" class="st4" d="M7.7,7.1C8,6.6,8.2,6.2,8.4,5.8C8.7,5.4,8.9,5,9.1,4.6
		c0,0,0,0,0-0.1c0.2-0.4,0.5-0.8,0.7-1.1L9.2,2C9.1,2.1,9.1,2.2,9,2.2C8.8,2.5,8.6,2.8,8.3,3.1C8.1,3.4,7.8,3.8,7.5,4.2
		C7.3,4.6,7,4.9,6.8,5.3C6.6,5.6,6.4,6,6.2,6.3c0,0,0,0,0,0l1,1.9C7.3,7.9,7.5,7.5,7.7,7.1L7.7,7.1z"/>
	
		<linearGradient id="path4475_1_" gradientUnits="userSpaceOnUse" x1="-3630.7517" y1="6566.8188" x2="-3615.1387" y2="6566.8188" gradientTransform="matrix(0.4226 -0.9063 -0.9063 -0.4226 7487.4658 -490.532)">
		<stop  offset="0" style="stop-color:#282662"/>
		<stop  offset="9.548389e-02" style="stop-color:#662E8D"/>
		<stop  offset="0.7882" style="stop-color:#9F2064"/>
		<stop  offset="0.9487" style="stop-color:#CD2032"/>
	</linearGradient>
	<path id="path4475" inkscape:connector-curvature="0" class="st5" d="M3.3,17.8c-0.1,0.4-0.3,0.7-0.4,1.1c0,0,0,0,0,0
		c0,0.1,0,0.1-0.1,0.2c-0.1,0.2-0.2,0.5-0.3,1c0.3,0.1,0.5,0.5,0.7,0.9c0-0.4-0.2-0.8-0.5-1.1c1.4,0.1,2.6-0.3,3.2-1.3
		c0.1-0.1,0.1-0.2,0.2-0.3c-0.3,0.4-0.6,0.5-1.3,0.5c0,0,0,0,0,0c0,0,0,0,0,0c1-0.4,1.5-0.9,1.9-1.6C6.9,17,7,16.8,7.1,16.6
		c-0.9,0.9-1.8,1.1-2.9,0.9l-0.8,0.1C3.4,17.7,3.3,17.8,3.3,17.8z"/>
	
		<linearGradient id="path4486_1_" gradientUnits="userSpaceOnUse" x1="-3632.4429" y1="6569.6885" x2="-3606.2422" y2="6569.6885" gradientTransform="matrix(0.4226 -0.9063 -0.9063 -0.4226 7487.4658 -490.532)">
		<stop  offset="0.3233" style="stop-color:#9E2064"/>
		<stop  offset="0.6302" style="stop-color:#C92037"/>
		<stop  offset="0.7514" style="stop-color:#CD2335"/>
		<stop  offset="1" style="stop-color:#E97826"/>
	</linearGradient>
	<path id="path4486" inkscape:connector-curvature="0" class="st6" d="M3.7,16.1c0.2-0.4,0.3-0.9,0.5-1.3c0.2-0.4,0.3-0.9,0.5-1.3
		c0.2-0.4,0.4-0.9,0.6-1.3c0.2-0.4,0.4-0.9,0.6-1.3c0.2-0.4,0.4-0.9,0.6-1.3c0.1-0.2,0.1-0.3,0.2-0.5c0.1-0.3,0.3-0.5,0.4-0.8
		c0,0,0,0,0,0l-1-1.9c0,0,0,0.1,0,0.1C5.9,6.8,5.6,7.2,5.4,7.6C5.2,8,5,8.3,4.8,8.7c-0.2,0.3-0.4,0.7-0.5,1c0,0.1-0.1,0.1-0.1,0.2
		c-0.2,0.4-0.4,0.9-0.6,1.3c-0.2,0.5-0.4,0.9-0.5,1.3c-0.1,0.3-0.2,0.5-0.3,0.8c-0.1,0.2-0.1,0.4-0.2,0.6c-0.1,0.5-0.3,1-0.4,1.5
		l1,1.9c0.1-0.3,0.3-0.7,0.4-1C3.6,16.3,3.6,16.2,3.7,16.1L3.7,16.1z"/>
	
		<linearGradient id="path4497_1_" gradientUnits="userSpaceOnUse" x1="-3630.5322" y1="6569.334" x2="-3616.7629" y2="6569.334" gradientTransform="matrix(0.4226 -0.9063 -0.9063 -0.4226 7487.4658 -490.532)">
		<stop  offset="0" style="stop-color:#282662"/>
		<stop  offset="9.548389e-02" style="stop-color:#662E8D"/>
		<stop  offset="0.7882" style="stop-color:#9F2064"/>
		<stop  offset="0.9487" style="stop-color:#CD2032"/>
	</linearGradient>
	<path id="path4497" inkscape:connector-curvature="0" class="st7" d="M2.2,15.6c-0.1,0.6-0.2,1.2-0.3,1.8c0,0,0,0,0,0.1
		c-0.3-0.5-1.1-1-1.1-1c0.6,0.8,1,1.7,1.1,2.5c-0.3,0.1-0.7,0-1.2-0.2c0.5,0.5,0.9,0.6,1,0.6c-0.5,0-1,0.4-1.5,0.7
		C1,19.9,1.6,19.7,2,19.8c-0.7,1.9-1.3,4-2,6.2c0.2-0.1,0.3-0.2,0.4-0.4c0.1-0.4,0.9-3,2.1-6.5c0-0.1,0.1-0.2,0.1-0.3
		c0,0,0-0.1,0-0.1c0.1-0.4,0.3-0.7,0.4-1.1c0-0.1,0.1-0.2,0.1-0.3c0,0,0,0,0,0L2.2,15.6C2.2,15.5,2.2,15.5,2.2,15.6L2.2,15.6z"/>
	
		<linearGradient id="path4508_1_" gradientUnits="userSpaceOnUse" x1="-3632.4429" y1="6566.9771" x2="-3606.2422" y2="6566.9771" gradientTransform="matrix(0.4226 -0.9063 -0.9063 -0.4226 7487.4658 -490.532)">
		<stop  offset="0.3233" style="stop-color:#9E2064"/>
		<stop  offset="0.6302" style="stop-color:#C92037"/>
		<stop  offset="0.7514" style="stop-color:#CD2335"/>
		<stop  offset="1" style="stop-color:#E97826"/>
	</linearGradient>
	<path id="path4508" inkscape:connector-curvature="0" class="st8" d="M7.2,8.4c0,0.1-0.1,0.1-0.1,0.2C7.1,8.8,7,9,6.9,9.1
		C6.8,9.3,6.7,9.5,6.6,9.7c0,0.1-0.1,0.2-0.1,0.3c-0.1,0.3-0.3,0.6-0.4,1c-0.2,0.4-0.4,0.8-0.6,1.3c-0.2,0.4-0.4,0.9-0.5,1.3
		c-0.2,0.4-0.4,0.9-0.5,1.3c-0.2,0.4-0.3,0.8-0.5,1.3c0,0,0,0,0,0.1c-0.2,0.4-0.3,0.9-0.5,1.3c0,0,0,0,0,0l0.8-0.1c0,0,0,0,0,0
		c0.9-0.1,2.2-0.8,3-1.7c0.4-0.4,0.7-0.9,1-1.4c0.2-0.4,0.4-0.9,0.7-1.4c0.2-0.4,0.4-0.9,0.5-1.4c-0.2,0.1-0.5,0.2-0.7,0.3
		c0,0-0.1,0-0.1,0c0,0-0.1,0-0.1,0l0,0l0,0c0,0,0,0,0,0c0.9-0.3,1.4-1,1.8-1.8c-0.2,0.2-0.6,0.4-1,0.5c-0.1,0-0.1,0-0.2,0
		c0,0,0,0,0,0l0,0l0,0c0,0,0,0,0,0h0l0,0c0.3-0.1,0.6-0.3,0.8-0.4c0,0,0.1-0.1,0.1-0.1c0.1-0.1,0.1-0.1,0.2-0.2c0,0,0.1-0.1,0.1-0.1
		c0.1-0.1,0.2-0.2,0.2-0.3c0,0,0-0.1,0.1-0.1c0-0.1,0.1-0.1,0.1-0.2c0.1-0.2,0.2-0.5,0.3-0.7c0-0.1,0.1-0.2,0.1-0.3c0,0,0-0.1,0-0.1
		c0-0.1,0.1-0.2,0.1-0.2c0-0.1,0-0.2,0.1-0.3l0,0l0,0c0,0-0.1,0-0.1,0.1c-0.3,0.2-0.7,0.3-1.1,0.4L10.5,8L9.8,8.1c0,0,0,0,0,0
		c0,0-0.1,0-0.1,0c0,0,0,0,0,0L7.2,8.4C7.3,8.4,7.3,8.4,7.2,8.4L7.2,8.4z"/>
	
		<linearGradient id="path4519_1_" gradientUnits="userSpaceOnUse" x1="-3634.0684" y1="6567.1123" x2="-3607.8674" y2="6567.1123" gradientTransform="matrix(0.4226 -0.9063 -0.9063 -0.4226 7487.4658 -490.532)">
		<stop  offset="0.3233" style="stop-color:#9E2064"/>
		<stop  offset="0.6302" style="stop-color:#C92037"/>
		<stop  offset="0.7514" style="stop-color:#CD2335"/>
		<stop  offset="1" style="stop-color:#E97826"/>
	</linearGradient>
	<path id="path4519" inkscape:connector-curvature="0" class="st9" d="M10,3.5C9.8,3.8,9.6,4.2,9.3,4.6c0,0,0,0,0,0.1
		C9,5.1,8.8,5.5,8.6,5.9C8.3,6.3,8.1,6.7,7.9,7.2C7.7,7.6,7.5,8,7.3,8.4l2.5-0.3c0.7-0.3,1-0.6,1.3-1.1c0.1-0.1,0.2-0.2,0.2-0.4
		c0.3-0.4,0.5-0.8,0.7-1.3c0.2-0.4,0.4-0.8,0.5-1.2c0.1-0.2,0.2-0.5,0.2-0.7c0-0.2,0.1-0.3,0.1-0.5C11.9,3.3,10.8,3.4,10,3.5L10,3.5
		z"/>
	<path id="path4521" inkscape:connector-curvature="0" class="st2" d="M8.4,11.9c0,0-0.1,0-0.1,0l0,0C8.3,11.9,8.4,11.9,8.4,11.9z"
		/>
	<path id="path4523" inkscape:connector-curvature="0" class="st3" d="M8.4,11.9c0,0-0.1,0-0.1,0l0,0C8.3,11.9,8.4,11.9,8.4,11.9z"
		/>
	
		<linearGradient id="path4534_1_" gradientUnits="userSpaceOnUse" x1="-3632.4429" y1="6566.1704" x2="-3606.2422" y2="6566.1704" gradientTransform="matrix(0.4226 -0.9063 -0.9063 -0.4226 7487.4658 -490.532)">
		<stop  offset="0.3233" style="stop-color:#9E2064"/>
		<stop  offset="0.6302" style="stop-color:#C92037"/>
		<stop  offset="0.7514" style="stop-color:#CD2335"/>
		<stop  offset="1" style="stop-color:#E97826"/>
	</linearGradient>
	<path id="path4534" inkscape:connector-curvature="0" class="st10" d="M8.4,11.9c0,0-0.1,0-0.1,0l0,0C8.3,11.9,8.4,11.9,8.4,11.9z"
		/>
	<path id="path4536" inkscape:connector-curvature="0" class="st2" d="M8.8,10.7C8.8,10.7,8.8,10.7,8.8,10.7
		C8.8,10.7,8.8,10.7,8.8,10.7L8.8,10.7z"/>
	<path id="path4538" inkscape:connector-curvature="0" class="st3" d="M8.8,10.7C8.8,10.7,8.8,10.7,8.8,10.7
		C8.8,10.7,8.8,10.7,8.8,10.7L8.8,10.7z"/>
	
		<linearGradient id="path4549_1_" gradientUnits="userSpaceOnUse" x1="-3632.4429" y1="6566.2632" x2="-3606.2422" y2="6566.2632" gradientTransform="matrix(0.4226 -0.9063 -0.9063 -0.4226 7487.4658 -490.532)">
		<stop  offset="0.3233" style="stop-color:#9E2064"/>
		<stop  offset="0.6302" style="stop-color:#C92037"/>
		<stop  offset="0.7514" style="stop-color:#CD2335"/>
		<stop  offset="1" style="stop-color:#E97826"/>
	</linearGradient>
	<path id="path4549" inkscape:connector-curvature="0" class="st11" d="M8.8,10.7C8.8,10.7,8.8,10.7,8.8,10.7
		C8.8,10.7,8.8,10.7,8.8,10.7L8.8,10.7z"/>
	<path id="path4551" inkscape:connector-curvature="0" class="st2" d="M8.8,10.7L8.8,10.7L8.8,10.7L8.8,10.7L8.8,10.7L8.8,10.7z"/>
	<path id="path4553" inkscape:connector-curvature="0" class="st3" d="M8.8,10.7L8.8,10.7L8.8,10.7L8.8,10.7L8.8,10.7L8.8,10.7z"/>
	
		<linearGradient id="path4564_1_" gradientUnits="userSpaceOnUse" x1="-3614.8281" y1="6566.2817" x2="-3614.8281" y2="6566.2817" gradientTransform="matrix(0.4226 -0.9063 -0.9063 -0.4226 7487.4658 -490.532)">
		<stop  offset="0.3233" style="stop-color:#9E2064"/>
		<stop  offset="0.6302" style="stop-color:#C92037"/>
		<stop  offset="0.7514" style="stop-color:#CD2335"/>
		<stop  offset="1" style="stop-color:#E97826"/>
	</linearGradient>
	<path id="path4564" inkscape:connector-curvature="0" class="st12" d="M8.8,10.7L8.8,10.7L8.8,10.7L8.8,10.7L8.8,10.7L8.8,10.7z"/>
</g>
</svg>
